<?xml version="1.0" encoding="UTF-8" standalone="no"?>
<!DOCTYPE svg PUBLIC "-//W3C//DTD SVG 1.1//EN"
 "http://www.w3.org/Graphics/SVG/1.1/DTD/svg11.dtd">
<!-- Generated by graphviz version 2.43.0 (0)
 -->
<!-- Title: HttpStatus.hpp Pages: 1 -->
<svg width="482pt" height="137pt"
 viewBox="0.00 0.00 482.00 137.00" xmlns="http://www.w3.org/2000/svg" xmlns:xlink="http://www.w3.org/1999/xlink">
<g id="graph0" class="graph" transform="scale(1 1) rotate(0) translate(4 133)">
<title>HttpStatus.hpp</title>
<!-- Node1 -->
<g id="Node000001" class="node">
<title>Node1</title>
<g id="a_Node000001"><a xlink:title="Defines HTTP status code enums for consistent error and response handling.">
<polygon fill="#999999" stroke="#666666" points="282,-129 193,-129 193,-110 282,-110 282,-129"/>
<text text-anchor="middle" x="237.5" y="-117" font-family="Helvetica,sans-Serif" font-size="10.00">HttpStatus.hpp</text>
</a>
</g>
</g>
<!-- Node2 -->
<g id="Node000002" class="node">
<title>Node2</title>
<g id="a_Node000002"><a xlink:href="Account_8hpp.html" target="_top" xlink:title="Handles user account&#45;related operations like creation and session management.">
<polygon fill="white" stroke="#666666" points="77,-74 0,-74 0,-55 77,-55 77,-74"/>
<text text-anchor="middle" x="38.5" y="-62" font-family="Helvetica,sans-Serif" font-size="10.00">Account.hpp</text>
</a>
</g>
</g>
<!-- Node1&#45;&gt;Node2 -->
<g id="edge1_Node000001_Node000002" class="edge">
<title>Node1&#45;&gt;Node2</title>
<g id="a_edge1_Node000001_Node000002"><a xlink:title=" ">
<path fill="none" stroke="#63b8ff" d="M195.49,-107.31C158.25,-97.39 104.66,-83.12 70.72,-74.08"/>
<polygon fill="#63b8ff" stroke="#63b8ff" points="194.96,-110.79 205.53,-109.98 196.76,-104.03 194.96,-110.79"/>
</a>
</g>
</g>
<!-- Node4 -->
<g id="Node000004" class="node">
<title>Node4</title>
<g id="a_Node000004"><a xlink:href="Databases_8hpp.html" target="_top" xlink:title="Provides database management APIs: databases, collections, attributes, documents, and indexes.">
<polygon fill="white" stroke="#666666" points="184,-74 95,-74 95,-55 184,-55 184,-74"/>
<text text-anchor="middle" x="139.5" y="-62" font-family="Helvetica,sans-Serif" font-size="10.00">Databases.hpp</text>
</a>
</g>
</g>
<!-- Node1&#45;&gt;Node4 -->
<g id="edge3_Node000001_Node000004" class="edge">
<title>Node1&#45;&gt;Node4</title>
<g id="a_edge3_Node000001_Node000004"><a xlink:title=" ">
<path fill="none" stroke="#63b8ff" d="M212.47,-104.97C194.56,-95.28 170.97,-82.52 155.53,-74.17"/>
<polygon fill="#63b8ff" stroke="#63b8ff" points="211.29,-108.31 221.75,-109.98 214.62,-102.15 211.29,-108.31"/>
</a>
</g>
</g>
<!-- Node5 -->
<g id="Node000005" class="node">
<title>Node5</title>
<g id="a_Node000005"><a xlink:href="Health_8hpp.html" target="_top" xlink:title="Exposes health check APIs to verify Appwrite server status and service uptime.">
<polygon fill="white" stroke="#666666" points="272.5,-74 202.5,-74 202.5,-55 272.5,-55 272.5,-74"/>
<text text-anchor="middle" x="237.5" y="-62" font-family="Helvetica,sans-Serif" font-size="10.00">Health.hpp</text>
</a>
</g>
</g>
<!-- Node1&#45;&gt;Node5 -->
<g id="edge5_Node000001_Node000005" class="edge">
<title>Node1&#45;&gt;Node5</title>
<g id="a_edge5_Node000001_Node000005"><a xlink:title=" ">
<path fill="none" stroke="#63b8ff" d="M237.5,-99.66C237.5,-90.93 237.5,-80.99 237.5,-74.09"/>
<polygon fill="#63b8ff" stroke="#63b8ff" points="234,-99.75 237.5,-109.75 241,-99.75 234,-99.75"/>
</a>
</g>
</g>
<!-- Node6 -->
<g id="Node000006" class="node">
<title>Node6</title>
<g id="a_Node000006"><a xlink:href="Messaging_8hpp.html" target="_top" xlink:title="Provides messaging&#45;related operations (messages, topics, subscribers)">
<polygon fill="white" stroke="#666666" points="380.5,-74 290.5,-74 290.5,-55 380.5,-55 380.5,-74"/>
<text text-anchor="middle" x="335.5" y="-62" font-family="Helvetica,sans-Serif" font-size="10.00">Messaging.hpp</text>
</a>
</g>
</g>
<!-- Node1&#45;&gt;Node6 -->
<g id="edge7_Node000001_Node000006" class="edge">
<title>Node1&#45;&gt;Node6</title>
<g id="a_edge7_Node000001_Node000006"><a xlink:title=" ">
<path fill="none" stroke="#63b8ff" d="M262.53,-104.97C280.44,-95.28 304.03,-82.52 319.47,-74.17"/>
<polygon fill="#63b8ff" stroke="#63b8ff" points="260.38,-102.15 253.25,-109.98 263.71,-108.31 260.38,-102.15"/>
</a>
</g>
</g>
<!-- Node7 -->
<g id="Node000007" class="node">
<title>Node7</title>
<g id="a_Node000007"><a xlink:href="Storage_8hpp.html" target="_top" xlink:title="Manages file storage operations like upload, download, delete, and preview.">
<polygon fill="white" stroke="#666666" points="474,-74 399,-74 399,-55 474,-55 474,-74"/>
<text text-anchor="middle" x="436.5" y="-62" font-family="Helvetica,sans-Serif" font-size="10.00">Storage.hpp</text>
</a>
</g>
</g>
<!-- Node1&#45;&gt;Node7 -->
<g id="edge9_Node000001_Node000007" class="edge">
<title>Node1&#45;&gt;Node7</title>
<g id="a_edge9_Node000001_Node000007"><a xlink:title=" ">
<path fill="none" stroke="#63b8ff" d="M279.51,-107.31C316.75,-97.39 370.34,-83.12 404.28,-74.08"/>
<polygon fill="#63b8ff" stroke="#63b8ff" points="278.24,-104.03 269.47,-109.98 280.04,-110.79 278.24,-104.03"/>
</a>
</g>
</g>
<!-- Node3 -->
<g id="Node000003" class="node">
<title>Node3</title>
<g id="a_Node000003"><a xlink:href="Appwrite_8hpp.html" target="_top" xlink:title="Root header to import all core Appwrite SDK modules for easy access.">
<polygon fill="white" stroke="#666666" points="278,-19 197,-19 197,0 278,0 278,-19"/>
<text text-anchor="middle" x="237.5" y="-7" font-family="Helvetica,sans-Serif" font-size="10.00">Appwrite.hpp</text>
</a>
</g>
</g>
<!-- Node2&#45;&gt;Node3 -->
<g id="edge2_Node000002_Node000003" class="edge">
<title>Node2&#45;&gt;Node3</title>
<g id="a_edge2_Node000002_Node000003"><a xlink:title=" ">
<path fill="none" stroke="#63b8ff" d="M80.51,-52.31C117.75,-42.39 171.34,-28.12 205.28,-19.08"/>
<polygon fill="#63b8ff" stroke="#63b8ff" points="79.24,-49.03 70.47,-54.98 81.04,-55.79 79.24,-49.03"/>
</a>
</g>
</g>
<!-- Node4&#45;&gt;Node3 -->
<g id="edge4_Node000004_Node000003" class="edge">
<title>Node4&#45;&gt;Node3</title>
<g id="a_edge4_Node000004_Node000003"><a xlink:title=" ">
<path fill="none" stroke="#63b8ff" d="M164.53,-49.97C182.44,-40.28 206.03,-27.52 221.47,-19.17"/>
<polygon fill="#63b8ff" stroke="#63b8ff" points="162.38,-47.15 155.25,-54.98 165.71,-53.31 162.38,-47.15"/>
</a>
</g>
</g>
<!-- Node5&#45;&gt;Node3 -->
<g id="edge6_Node000005_Node000003" class="edge">
<title>Node5&#45;&gt;Node3</title>
<g id="a_edge6_Node000005_Node000003"><a xlink:title=" ">
<path fill="none" stroke="#63b8ff" d="M237.5,-44.66C237.5,-35.93 237.5,-25.99 237.5,-19.09"/>
<polygon fill="#63b8ff" stroke="#63b8ff" points="234,-44.75 237.5,-54.75 241,-44.75 234,-44.75"/>
</a>
</g>
</g>
<!-- Node6&#45;&gt;Node3 -->
<g id="edge8_Node000006_Node000003" class="edge">
<title>Node6&#45;&gt;Node3</title>
<g id="a_edge8_Node000006_Node000003"><a xlink:title=" ">
<path fill="none" stroke="#63b8ff" d="M310.47,-49.97C292.56,-40.28 268.97,-27.52 253.53,-19.17"/>
<polygon fill="#63b8ff" stroke="#63b8ff" points="309.29,-53.31 319.75,-54.98 312.62,-47.15 309.29,-53.31"/>
</a>
</g>
</g>
<!-- Node7&#45;&gt;Node3 -->
<g id="edge10_Node000007_Node000003" class="edge">
<title>Node7&#45;&gt;Node3</title>
<g id="a_edge10_Node000007_Node000003"><a xlink:title=" ">
<path fill="none" stroke="#63b8ff" d="M394.49,-52.31C357.25,-42.39 303.66,-28.12 269.72,-19.08"/>
<polygon fill="#63b8ff" stroke="#63b8ff" points="393.96,-55.79 404.53,-54.98 395.76,-49.03 393.96,-55.79"/>
</a>
</g>
</g>
</g>
</svg>
