<?xml version="1.0" encoding="UTF-8" standalone="no"?>
<!DOCTYPE svg PUBLIC "-//W3C//DTD SVG 1.1//EN"
 "http://www.w3.org/Graphics/SVG/1.1/DTD/svg11.dtd">
<!-- Generated by graphviz version 2.43.0 (0)
 -->
<!-- Title: Account.hpp Pages: 1 -->
<svg width="453pt" height="137pt"
 viewBox="0.00 0.00 452.50 137.00" xmlns="http://www.w3.org/2000/svg" xmlns:xlink="http://www.w3.org/1999/xlink">
<g id="graph0" class="graph" transform="scale(1 1) rotate(0) translate(4 133)">
<title>Account.hpp</title>
<!-- Node1 -->
<g id="Node000001" class="node">
<title>Node1</title>
<g id="a_Node000001"><a xlink:title="Handles user account&#45;related operations like creation and session management.">
<polygon fill="#999999" stroke="#666666" points="171.5,-129 94.5,-129 94.5,-110 171.5,-110 171.5,-129"/>
<text text-anchor="middle" x="133" y="-117" font-family="Helvetica,sans-Serif" font-size="10.00">Account.hpp</text>
</a>
</g>
</g>
<!-- Node2 -->
<g id="Node000002" class="node">
<title>Node2</title>
<g id="a_Node000002"><a xlink:href="Utils_8hpp.html" target="_top" xlink:title="Provides utility functions and helpers used across the SDK.">
<polygon fill="white" stroke="#666666" points="60,-74 0,-74 0,-55 60,-55 60,-74"/>
<text text-anchor="middle" x="30" y="-62" font-family="Helvetica,sans-Serif" font-size="10.00">Utils.hpp</text>
</a>
</g>
</g>
<!-- Node1&#45;&gt;Node2 -->
<g id="edge1_Node000001_Node000002" class="edge">
<title>Node1&#45;&gt;Node2</title>
<g id="a_edge1_Node000001_Node000002"><a xlink:title=" ">
<path fill="none" stroke="#63b8ff" d="M116.45,-109.98C100.11,-101.57 74.87,-88.59 55.87,-78.81"/>
<polygon fill="#63b8ff" stroke="#63b8ff" points="57.34,-75.63 46.85,-74.17 54.14,-81.86 57.34,-75.63"/>
</a>
</g>
</g>
<!-- Node3 -->
<g id="Node000003" class="node">
<title>Node3</title>
<g id="a_Node000003"><a xlink:title=" ">
<polygon fill="#e0e0e0" stroke="#999999" points="113,-19 69,-19 69,0 113,0 113,-19"/>
<text text-anchor="middle" x="91" y="-7" font-family="Helvetica,sans-Serif" font-size="10.00">string</text>
</a>
</g>
</g>
<!-- Node1&#45;&gt;Node3 -->
<g id="edge8_Node000001_Node000003" class="edge">
<title>Node1&#45;&gt;Node3</title>
<g id="a_edge8_Node000001_Node000003"><a xlink:title=" ">
<path fill="none" stroke="#63b8ff" d="M126.84,-109.68C121,-100.97 112.35,-87.09 107,-74 101.08,-59.51 96.9,-42.24 94.3,-29.37"/>
<polygon fill="#63b8ff" stroke="#63b8ff" points="97.71,-28.56 92.42,-19.38 90.83,-29.85 97.71,-28.56"/>
</a>
</g>
</g>
<!-- Node5 -->
<g id="Node000005" class="node">
<title>Node5</title>
<g id="a_Node000005"><a xlink:href="HttpStatus_8hpp.html" target="_top" xlink:title="Defines HTTP status code enums for consistent error and response handling.">
<polygon fill="white" stroke="#666666" points="241.5,-74 116.5,-74 116.5,-55 241.5,-55 241.5,-74"/>
<text text-anchor="middle" x="179" y="-62" font-family="Helvetica,sans-Serif" font-size="10.00">enums/HttpStatus.hpp</text>
</a>
</g>
</g>
<!-- Node1&#45;&gt;Node5 -->
<g id="edge4_Node000001_Node000005" class="edge">
<title>Node1&#45;&gt;Node5</title>
<g id="a_edge4_Node000001_Node000005"><a xlink:title=" ">
<path fill="none" stroke="#63b8ff" d="M140.6,-109.75C147.16,-102.18 156.82,-91.05 164.81,-81.84"/>
<polygon fill="#63b8ff" stroke="#63b8ff" points="167.63,-83.94 171.55,-74.09 162.35,-79.35 167.63,-83.94"/>
</a>
</g>
</g>
<!-- Node6 -->
<g id="Node000006" class="node">
<title>Node6</title>
<g id="a_Node000006"><a xlink:href="AppwriteException_8hpp.html" target="_top" xlink:title="Declares the base exception class used to represent Appwrite SDK errors.">
<polygon fill="white" stroke="#666666" points="444.5,-74 259.5,-74 259.5,-55 444.5,-55 444.5,-74"/>
<text text-anchor="middle" x="352" y="-62" font-family="Helvetica,sans-Serif" font-size="10.00">exceptions/AppwriteException.hpp</text>
</a>
</g>
</g>
<!-- Node1&#45;&gt;Node6 -->
<g id="edge5_Node000001_Node000006" class="edge">
<title>Node1&#45;&gt;Node6</title>
<g id="a_edge5_Node000001_Node000006"><a xlink:title=" ">
<path fill="none" stroke="#63b8ff" d="M168.19,-109.98C205.83,-100.87 265.66,-86.4 306.77,-76.45"/>
<polygon fill="#63b8ff" stroke="#63b8ff" points="307.64,-79.84 316.54,-74.08 306,-73.03 307.64,-79.84"/>
</a>
</g>
</g>
<!-- Node2&#45;&gt;Node3 -->
<g id="edge2_Node000002_Node000003" class="edge">
<title>Node2&#45;&gt;Node3</title>
<g id="a_edge2_Node000002_Node000003"><a xlink:title=" ">
<path fill="none" stroke="#63b8ff" d="M39.8,-54.98C48.82,-47.15 62.41,-35.34 73.32,-25.86"/>
<polygon fill="#63b8ff" stroke="#63b8ff" points="75.77,-28.37 81.02,-19.17 71.18,-23.09 75.77,-28.37"/>
</a>
</g>
</g>
<!-- Node4 -->
<g id="Node000004" class="node">
<title>Node4</title>
<g id="a_Node000004"><a xlink:title=" ">
<polygon fill="#e0e0e0" stroke="#999999" points="50.5,-19 3.5,-19 3.5,0 50.5,0 50.5,-19"/>
<text text-anchor="middle" x="27" y="-7" font-family="Helvetica,sans-Serif" font-size="10.00">vector</text>
</a>
</g>
</g>
<!-- Node2&#45;&gt;Node4 -->
<g id="edge3_Node000002_Node000004" class="edge">
<title>Node2&#45;&gt;Node4</title>
<g id="a_edge3_Node000002_Node000004"><a xlink:title=" ">
<path fill="none" stroke="#63b8ff" d="M29.5,-54.75C29.11,-47.8 28.55,-37.85 28.05,-29.13"/>
<polygon fill="#63b8ff" stroke="#63b8ff" points="31.55,-28.88 27.49,-19.09 24.56,-29.27 31.55,-28.88"/>
</a>
</g>
</g>
<!-- Node6&#45;&gt;Node3 -->
<g id="edge7_Node000006_Node000003" class="edge">
<title>Node6&#45;&gt;Node3</title>
<g id="a_edge7_Node000006_Node000003"><a xlink:title=" ">
<path fill="none" stroke="#63b8ff" d="M310.07,-54.98C257.95,-44.4 170.16,-26.58 123.1,-17.02"/>
<polygon fill="#63b8ff" stroke="#63b8ff" points="123.65,-13.56 113.15,-15 122.25,-20.42 123.65,-13.56"/>
</a>
</g>
</g>
<!-- Node7 -->
<g id="Node000007" class="node">
<title>Node7</title>
<g id="a_Node000007"><a xlink:title=" ">
<polygon fill="#e0e0e0" stroke="#999999" points="384.5,-19 319.5,-19 319.5,0 384.5,0 384.5,-19"/>
<text text-anchor="middle" x="352" y="-7" font-family="Helvetica,sans-Serif" font-size="10.00">exception</text>
</a>
</g>
</g>
<!-- Node6&#45;&gt;Node7 -->
<g id="edge6_Node000006_Node000007" class="edge">
<title>Node6&#45;&gt;Node7</title>
<g id="a_edge6_Node000006_Node000007"><a xlink:title=" ">
<path fill="none" stroke="#63b8ff" d="M352,-54.75C352,-47.8 352,-37.85 352,-29.13"/>
<polygon fill="#63b8ff" stroke="#63b8ff" points="355.5,-29.09 352,-19.09 348.5,-29.09 355.5,-29.09"/>
</a>
</g>
</g>
</g>
</svg>
