<?xml version="1.0" encoding="UTF-8" standalone="no"?>
<!DOCTYPE svg PUBLIC "-//W3C//DTD SVG 1.1//EN"
 "http://www.w3.org/Graphics/SVG/1.1/DTD/svg11.dtd">
<!-- Generated by graphviz version 2.43.0 (0)
 -->
<!-- Title: Appwrite.hpp Pages: 1 -->
<svg width="960pt" height="192pt"
 viewBox="0.00 0.00 960.00 192.00" xmlns="http://www.w3.org/2000/svg" xmlns:xlink="http://www.w3.org/1999/xlink">
<g id="graph0" class="graph" transform="scale(1 1) rotate(0) translate(4 188)">
<title>Appwrite.hpp</title>
<!-- Node1 -->
<g id="Node000001" class="node">
<title>Node1</title>
<g id="a_Node000001"><a xlink:title="Root header to import all core Appwrite SDK modules for easy access.">
<polygon fill="#999999" stroke="#666666" points="428.5,-184 347.5,-184 347.5,-165 428.5,-165 428.5,-184"/>
<text text-anchor="middle" x="388" y="-172" font-family="Helvetica,sans-Serif" font-size="10.00">Appwrite.hpp</text>
</a>
</g>
</g>
<!-- Node2 -->
<g id="Node000002" class="node">
<title>Node2</title>
<g id="a_Node000002"><a xlink:href="Account_8hpp.html" target="_top" xlink:title="Handles user account&#45;related operations like creation and session management.">
<polygon fill="white" stroke="#666666" points="116,-129 0,-129 0,-110 116,-110 116,-129"/>
<text text-anchor="middle" x="58" y="-117" font-family="Helvetica,sans-Serif" font-size="10.00">classes/Account.hpp</text>
</a>
</g>
</g>
<!-- Node1&#45;&gt;Node2 -->
<g id="edge1_Node000001_Node000002" class="edge">
<title>Node1&#45;&gt;Node2</title>
<g id="a_edge1_Node000001_Node000002"><a xlink:title=" ">
<path fill="none" stroke="#63b8ff" d="M347.2,-166.95C290.53,-157.85 187.47,-141.29 120.91,-130.6"/>
<polygon fill="#63b8ff" stroke="#63b8ff" points="121.39,-127.14 110.96,-129.01 120.28,-134.05 121.39,-127.14"/>
</a>
</g>
</g>
<!-- Node9 -->
<g id="Node000009" class="node">
<title>Node9</title>
<g id="a_Node000009"><a xlink:href="Databases_8hpp.html" target="_top" xlink:title="Provides database management APIs: databases, collections, attributes, documents, and indexes.">
<polygon fill="white" stroke="#666666" points="522,-129 394,-129 394,-110 522,-110 522,-129"/>
<text text-anchor="middle" x="458" y="-117" font-family="Helvetica,sans-Serif" font-size="10.00">classes/Databases.hpp</text>
</a>
</g>
</g>
<!-- Node1&#45;&gt;Node9 -->
<g id="edge10_Node000001_Node000009" class="edge">
<title>Node1&#45;&gt;Node9</title>
<g id="a_edge10_Node000001_Node000009"><a xlink:title=" ">
<path fill="none" stroke="#63b8ff" d="M399.25,-164.98C409.8,-157 425.8,-144.88 438.44,-135.31"/>
<polygon fill="#63b8ff" stroke="#63b8ff" points="440.69,-138 446.55,-129.17 436.46,-132.42 440.69,-138"/>
</a>
</g>
</g>
<!-- Node10 -->
<g id="Node000010" class="node">
<title>Node10</title>
<g id="a_Node000010"><a xlink:href="Query_8hpp.html" target="_top" xlink:title="Offers helper methods to construct query parameters for filtering and sorting API responses.">
<polygon fill="white" stroke="#666666" points="741,-74 637,-74 637,-55 741,-55 741,-74"/>
<text text-anchor="middle" x="689" y="-62" font-family="Helvetica,sans-Serif" font-size="10.00">classes/Query.hpp</text>
</a>
</g>
</g>
<!-- Node1&#45;&gt;Node10 -->
<g id="edge34_Node000001_Node000010" class="edge">
<title>Node1&#45;&gt;Node10</title>
<g id="a_edge34_Node000001_Node000010"><a xlink:title=" ">
<path fill="none" stroke="#63b8ff" d="M428.63,-173C500.21,-171.22 644.5,-163.35 679,-129 690.48,-117.57 692.16,-98.68 691.46,-84.47"/>
<polygon fill="#63b8ff" stroke="#63b8ff" points="694.92,-83.94 690.53,-74.31 687.95,-84.58 694.92,-83.94"/>
</a>
</g>
</g>
<!-- Node17 -->
<g id="Node000017" class="node">
<title>Node17</title>
<g id="a_Node000017"><a xlink:href="Health_8hpp.html" target="_top" xlink:title="Exposes health check APIs to verify Appwrite server status and service uptime.">
<polygon fill="white" stroke="#666666" points="243.5,-129 134.5,-129 134.5,-110 243.5,-110 243.5,-129"/>
<text text-anchor="middle" x="189" y="-117" font-family="Helvetica,sans-Serif" font-size="10.00">classes/Health.hpp</text>
</a>
</g>
</g>
<!-- Node1&#45;&gt;Node17 -->
<g id="edge23_Node000001_Node000017" class="edge">
<title>Node1&#45;&gt;Node17</title>
<g id="a_edge23_Node000001_Node000017"><a xlink:title=" ">
<path fill="none" stroke="#63b8ff" d="M356.03,-164.98C322.18,-155.97 268.6,-141.7 231.29,-131.76"/>
<polygon fill="#63b8ff" stroke="#63b8ff" points="231.79,-128.27 221.22,-129.08 229.99,-135.04 231.79,-128.27"/>
</a>
</g>
</g>
<!-- Node18 -->
<g id="Node000018" class="node">
<title>Node18</title>
<g id="a_Node000018"><a xlink:href="Messaging_8hpp.html" target="_top" xlink:title="Provides messaging&#45;related operations (messages, topics, subscribers)">
<polygon fill="white" stroke="#666666" points="669.5,-129 540.5,-129 540.5,-110 669.5,-110 669.5,-129"/>
<text text-anchor="middle" x="605" y="-117" font-family="Helvetica,sans-Serif" font-size="10.00">classes/Messaging.hpp</text>
</a>
</g>
</g>
<!-- Node1&#45;&gt;Node18 -->
<g id="edge28_Node000001_Node000018" class="edge">
<title>Node1&#45;&gt;Node18</title>
<g id="a_edge28_Node000001_Node000018"><a xlink:title=" ">
<path fill="none" stroke="#63b8ff" d="M422.86,-164.98C460.09,-155.89 519.2,-141.46 559.93,-131.51"/>
<polygon fill="#63b8ff" stroke="#63b8ff" points="560.98,-134.85 569.86,-129.08 559.32,-128.05 560.98,-134.85"/>
</a>
</g>
</g>
<!-- Node19 -->
<g id="Node000019" class="node">
<title>Node19</title>
<g id="a_Node000019"><a xlink:href="Storage_8hpp.html" target="_top" xlink:title="Manages file storage operations like upload, download, delete, and preview.">
<polygon fill="white" stroke="#666666" points="376,-129 262,-129 262,-110 376,-110 376,-129"/>
<text text-anchor="middle" x="319" y="-117" font-family="Helvetica,sans-Serif" font-size="10.00">classes/Storage.hpp</text>
</a>
</g>
</g>
<!-- Node1&#45;&gt;Node19 -->
<g id="edge35_Node000001_Node000019" class="edge">
<title>Node1&#45;&gt;Node19</title>
<g id="a_edge35_Node000001_Node000019"><a xlink:title=" ">
<path fill="none" stroke="#63b8ff" d="M376.91,-164.98C366.51,-157 350.74,-144.88 338.28,-135.31"/>
<polygon fill="#63b8ff" stroke="#63b8ff" points="340.35,-132.49 330.29,-129.17 336.09,-138.04 340.35,-132.49"/>
</a>
</g>
</g>
<!-- Node3 -->
<g id="Node000003" class="node">
<title>Node3</title>
<g id="a_Node000003"><a xlink:href="Utils_8hpp.html" target="_top" xlink:title="Provides utility functions and helpers used across the SDK.">
<polygon fill="white" stroke="#666666" points="527,-74 467,-74 467,-55 527,-55 527,-74"/>
<text text-anchor="middle" x="497" y="-62" font-family="Helvetica,sans-Serif" font-size="10.00">Utils.hpp</text>
</a>
</g>
</g>
<!-- Node2&#45;&gt;Node3 -->
<g id="edge2_Node000002_Node000003" class="edge">
<title>Node2&#45;&gt;Node3</title>
<g id="a_edge2_Node000002_Node000003"><a xlink:title=" ">
<path fill="none" stroke="#63b8ff" d="M116.1,-111.1C119.11,-110.73 122.09,-110.36 125,-110 245.41,-95.16 387.84,-78.32 456.28,-70.27"/>
<polygon fill="#63b8ff" stroke="#63b8ff" points="457.09,-73.7 466.61,-69.06 456.27,-66.75 457.09,-73.7"/>
</a>
</g>
</g>
<!-- Node4 -->
<g id="Node000004" class="node">
<title>Node4</title>
<g id="a_Node000004"><a xlink:title=" ">
<polygon fill="#e0e0e0" stroke="#999999" points="455,-19 411,-19 411,0 455,0 455,-19"/>
<text text-anchor="middle" x="433" y="-7" font-family="Helvetica,sans-Serif" font-size="10.00">string</text>
</a>
</g>
</g>
<!-- Node2&#45;&gt;Node4 -->
<g id="edge9_Node000002_Node000004" class="edge">
<title>Node2&#45;&gt;Node4</title>
<g id="a_edge9_Node000002_Node000004"><a xlink:title=" ">
<path fill="none" stroke="#63b8ff" d="M55.78,-109.72C52.9,-96.01 49.78,-69.59 64,-55 65.47,-53.49 311.06,-24.72 400.72,-14.26"/>
<polygon fill="#63b8ff" stroke="#63b8ff" points="401.32,-17.71 410.85,-13.08 400.51,-10.76 401.32,-17.71"/>
</a>
</g>
</g>
<!-- Node6 -->
<g id="Node000006" class="node">
<title>Node6</title>
<g id="a_Node000006"><a xlink:href="HttpStatus_8hpp.html" target="_top" xlink:title="Defines HTTP status code enums for consistent error and response handling.">
<polygon fill="white" stroke="#666666" points="208.5,-74 83.5,-74 83.5,-55 208.5,-55 208.5,-74"/>
<text text-anchor="middle" x="146" y="-62" font-family="Helvetica,sans-Serif" font-size="10.00">enums/HttpStatus.hpp</text>
</a>
</g>
</g>
<!-- Node2&#45;&gt;Node6 -->
<g id="edge5_Node000002_Node000006" class="edge">
<title>Node2&#45;&gt;Node6</title>
<g id="a_edge5_Node000002_Node000006"><a xlink:title=" ">
<path fill="none" stroke="#63b8ff" d="M72.14,-109.98C85.79,-101.77 106.69,-89.18 122.78,-79.49"/>
<polygon fill="#63b8ff" stroke="#63b8ff" points="124.84,-82.33 131.6,-74.17 121.23,-76.33 124.84,-82.33"/>
</a>
</g>
</g>
<!-- Node7 -->
<g id="Node000007" class="node">
<title>Node7</title>
<g id="a_Node000007"><a xlink:href="AppwriteException_8hpp.html" target="_top" xlink:title="Declares the base exception class used to represent Appwrite SDK errors.">
<polygon fill="white" stroke="#666666" points="411.5,-74 226.5,-74 226.5,-55 411.5,-55 411.5,-74"/>
<text text-anchor="middle" x="319" y="-62" font-family="Helvetica,sans-Serif" font-size="10.00">exceptions/AppwriteException.hpp</text>
</a>
</g>
</g>
<!-- Node2&#45;&gt;Node7 -->
<g id="edge6_Node000002_Node000007" class="edge">
<title>Node2&#45;&gt;Node7</title>
<g id="a_edge6_Node000002_Node000007"><a xlink:title=" ">
<path fill="none" stroke="#63b8ff" d="M99.93,-109.98C145.27,-100.78 217.61,-86.09 266.65,-76.13"/>
<polygon fill="#63b8ff" stroke="#63b8ff" points="267.63,-79.5 276.74,-74.08 266.24,-72.64 267.63,-79.5"/>
</a>
</g>
</g>
<!-- Node3&#45;&gt;Node4 -->
<g id="edge3_Node000003_Node000004" class="edge">
<title>Node3&#45;&gt;Node4</title>
<g id="a_edge3_Node000003_Node000004"><a xlink:title=" ">
<path fill="none" stroke="#63b8ff" d="M486.72,-54.98C477.16,-47.07 462.72,-35.11 451.22,-25.58"/>
<polygon fill="#63b8ff" stroke="#63b8ff" points="453.4,-22.85 443.47,-19.17 448.94,-28.24 453.4,-22.85"/>
</a>
</g>
</g>
<!-- Node5 -->
<g id="Node000005" class="node">
<title>Node5</title>
<g id="a_Node000005"><a xlink:title=" ">
<polygon fill="#e0e0e0" stroke="#999999" points="520.5,-19 473.5,-19 473.5,0 520.5,0 520.5,-19"/>
<text text-anchor="middle" x="497" y="-7" font-family="Helvetica,sans-Serif" font-size="10.00">vector</text>
</a>
</g>
</g>
<!-- Node3&#45;&gt;Node5 -->
<g id="edge4_Node000003_Node000005" class="edge">
<title>Node3&#45;&gt;Node5</title>
<g id="a_edge4_Node000003_Node000005"><a xlink:title=" ">
<path fill="none" stroke="#63b8ff" d="M497,-54.75C497,-47.8 497,-37.85 497,-29.13"/>
<polygon fill="#63b8ff" stroke="#63b8ff" points="500.5,-29.09 497,-19.09 493.5,-29.09 500.5,-29.09"/>
</a>
</g>
</g>
<!-- Node7&#45;&gt;Node4 -->
<g id="edge8_Node000007_Node000004" class="edge">
<title>Node7&#45;&gt;Node4</title>
<g id="a_edge8_Node000007_Node000004"><a xlink:title=" ">
<path fill="none" stroke="#63b8ff" d="M337.32,-54.98C355.66,-46.46 384.11,-33.23 405.23,-23.41"/>
<polygon fill="#63b8ff" stroke="#63b8ff" points="406.76,-26.56 414.35,-19.17 403.81,-20.21 406.76,-26.56"/>
</a>
</g>
</g>
<!-- Node8 -->
<g id="Node000008" class="node">
<title>Node8</title>
<g id="a_Node000008"><a xlink:title=" ">
<polygon fill="#e0e0e0" stroke="#999999" points="351.5,-19 286.5,-19 286.5,0 351.5,0 351.5,-19"/>
<text text-anchor="middle" x="319" y="-7" font-family="Helvetica,sans-Serif" font-size="10.00">exception</text>
</a>
</g>
</g>
<!-- Node7&#45;&gt;Node8 -->
<g id="edge7_Node000007_Node000008" class="edge">
<title>Node7&#45;&gt;Node8</title>
<g id="a_edge7_Node000007_Node000008"><a xlink:title=" ">
<path fill="none" stroke="#63b8ff" d="M319,-54.75C319,-47.8 319,-37.85 319,-29.13"/>
<polygon fill="#63b8ff" stroke="#63b8ff" points="322.5,-29.09 319,-19.09 315.5,-29.09 322.5,-29.09"/>
</a>
</g>
</g>
<!-- Node9&#45;&gt;Node3 -->
<g id="edge11_Node000009_Node000003" class="edge">
<title>Node9&#45;&gt;Node3</title>
<g id="a_edge11_Node000009_Node000003"><a xlink:title=" ">
<path fill="none" stroke="#63b8ff" d="M464.44,-109.75C469.89,-102.34 477.86,-91.5 484.56,-82.41"/>
<polygon fill="#63b8ff" stroke="#63b8ff" points="487.57,-84.22 490.68,-74.09 481.93,-80.07 487.57,-84.22"/>
</a>
</g>
</g>
<!-- Node9&#45;&gt;Node4 -->
<g id="edge22_Node000009_Node000004" class="edge">
<title>Node9&#45;&gt;Node4</title>
<g id="a_edge22_Node000009_Node000004"><a xlink:title=" ">
<path fill="none" stroke="#63b8ff" d="M484.77,-109.93C513.26,-99.32 552.16,-79.59 536,-55 527.75,-42.44 492.03,-28.86 464.95,-20.04"/>
<polygon fill="#63b8ff" stroke="#63b8ff" points="465.66,-16.6 455.07,-16.91 463.54,-23.27 465.66,-16.6"/>
</a>
</g>
</g>
<!-- Node9&#45;&gt;Node6 -->
<g id="edge20_Node000009_Node000006" class="edge">
<title>Node9&#45;&gt;Node6</title>
<g id="a_edge20_Node000009_Node000006"><a xlink:title=" ">
<path fill="none" stroke="#63b8ff" d="M407.87,-109.98C352.91,-100.65 264.77,-85.67 206.13,-75.71"/>
<polygon fill="#63b8ff" stroke="#63b8ff" points="206.71,-72.26 196.26,-74.04 205.53,-79.16 206.71,-72.26"/>
</a>
</g>
</g>
<!-- Node9&#45;&gt;Node7 -->
<g id="edge21_Node000009_Node000007" class="edge">
<title>Node9&#45;&gt;Node7</title>
<g id="a_edge21_Node000009_Node000007"><a xlink:title=" ">
<path fill="none" stroke="#63b8ff" d="M435.67,-109.98C412.8,-101.27 377.04,-87.63 351.14,-77.75"/>
<polygon fill="#63b8ff" stroke="#63b8ff" points="352.33,-74.46 341.74,-74.17 349.84,-81 352.33,-74.46"/>
</a>
</g>
</g>
<!-- Node9&#45;&gt;Node10 -->
<g id="edge12_Node000009_Node000010" class="edge">
<title>Node9&#45;&gt;Node10</title>
<g id="a_edge12_Node000009_Node000010"><a xlink:title=" ">
<path fill="none" stroke="#63b8ff" d="M495.11,-109.98C534.99,-100.84 598.46,-86.27 641.84,-76.32"/>
<polygon fill="#63b8ff" stroke="#63b8ff" points="642.63,-79.73 651.59,-74.08 641.07,-72.91 642.63,-79.73"/>
</a>
</g>
</g>
<!-- Node10&#45;&gt;Node4 -->
<g id="edge18_Node000010_Node000004" class="edge">
<title>Node10&#45;&gt;Node4</title>
<g id="a_edge18_Node000010_Node000004"><a xlink:title=" ">
<path fill="none" stroke="#63b8ff" d="M640.5,-54.96C597.02,-47.06 531.27,-34.55 465.44,-19.21"/>
<polygon fill="#63b8ff" stroke="#63b8ff" points="465.84,-15.71 455.3,-16.82 464.23,-22.52 465.84,-15.71"/>
</a>
</g>
</g>
<!-- Node11 -->
<g id="Node000011" class="node">
<title>Node11</title>
<g id="a_Node000011"><a xlink:title=" ">
<polygon fill="#e0e0e0" stroke="#999999" points="799.5,-19 750.5,-19 750.5,0 799.5,0 799.5,-19"/>
<text text-anchor="middle" x="775" y="-7" font-family="Helvetica,sans-Serif" font-size="10.00">cctype</text>
</a>
</g>
</g>
<!-- Node10&#45;&gt;Node11 -->
<g id="edge13_Node000010_Node000011" class="edge">
<title>Node10&#45;&gt;Node11</title>
<g id="a_edge13_Node000010_Node000011"><a xlink:title=" ">
<path fill="none" stroke="#63b8ff" d="M702.82,-54.98C716.15,-46.77 736.58,-34.18 752.31,-24.49"/>
<polygon fill="#63b8ff" stroke="#63b8ff" points="754.25,-27.4 760.93,-19.17 750.58,-21.44 754.25,-27.4"/>
</a>
</g>
</g>
<!-- Node12 -->
<g id="Node000012" class="node">
<title>Node12</title>
<g id="a_Node000012"><a xlink:title=" ">
<polygon fill="#e0e0e0" stroke="#999999" points="874,-19 818,-19 818,0 874,0 874,-19"/>
<text text-anchor="middle" x="846" y="-7" font-family="Helvetica,sans-Serif" font-size="10.00">iomanip</text>
</a>
</g>
</g>
<!-- Node10&#45;&gt;Node12 -->
<g id="edge14_Node000010_Node000012" class="edge">
<title>Node10&#45;&gt;Node12</title>
<g id="a_edge14_Node000010_Node000012"><a xlink:title=" ">
<path fill="none" stroke="#63b8ff" d="M714.22,-54.98C740.36,-46.16 781.4,-32.31 810.73,-22.41"/>
<polygon fill="#63b8ff" stroke="#63b8ff" points="812.22,-25.6 820.58,-19.08 809.98,-18.96 812.22,-25.6"/>
</a>
</g>
</g>
<!-- Node13 -->
<g id="Node000013" class="node">
<title>Node13</title>
<g id="a_Node000013"><a xlink:title=" ">
<polygon fill="#e0e0e0" stroke="#999999" points="952,-19 892,-19 892,0 952,0 952,-19"/>
<text text-anchor="middle" x="922" y="-7" font-family="Helvetica,sans-Serif" font-size="10.00">iostream</text>
</a>
</g>
</g>
<!-- Node10&#45;&gt;Node13 -->
<g id="edge15_Node000010_Node000013" class="edge">
<title>Node10&#45;&gt;Node13</title>
<g id="a_edge15_Node000010_Node000013"><a xlink:title=" ">
<path fill="none" stroke="#63b8ff" d="M726.44,-54.98C768.95,-45.31 838.07,-29.59 881.73,-19.66"/>
<polygon fill="#63b8ff" stroke="#63b8ff" points="882.73,-23.02 891.71,-17.39 881.18,-16.2 882.73,-23.02"/>
</a>
</g>
</g>
<!-- Node14 -->
<g id="Node000014" class="node">
<title>Node14</title>
<g id="a_Node000014"><a xlink:title=" ">
<polygon fill="#e0e0e0" stroke="#999999" points="571,-19 539,-19 539,0 571,0 571,-19"/>
<text text-anchor="middle" x="555" y="-7" font-family="Helvetica,sans-Serif" font-size="10.00">list</text>
</a>
</g>
</g>
<!-- Node10&#45;&gt;Node14 -->
<g id="edge16_Node000010_Node000014" class="edge">
<title>Node10&#45;&gt;Node14</title>
<g id="a_edge16_Node000010_Node000014"><a xlink:title=" ">
<path fill="none" stroke="#63b8ff" d="M667.47,-54.98C643.8,-45.62 605.8,-30.59 580.62,-20.63"/>
<polygon fill="#63b8ff" stroke="#63b8ff" points="581.6,-17.26 571.01,-16.83 579.02,-23.76 581.6,-17.26"/>
</a>
</g>
</g>
<!-- Node15 -->
<g id="Node000015" class="node">
<title>Node15</title>
<g id="a_Node000015"><a xlink:title=" ">
<polygon fill="#e0e0e0" stroke="#999999" points="645,-19 589,-19 589,0 645,0 645,-19"/>
<text text-anchor="middle" x="617" y="-7" font-family="Helvetica,sans-Serif" font-size="10.00">sstream</text>
</a>
</g>
</g>
<!-- Node10&#45;&gt;Node15 -->
<g id="edge17_Node000010_Node000015" class="edge">
<title>Node10&#45;&gt;Node15</title>
<g id="a_edge17_Node000010_Node000015"><a xlink:title=" ">
<path fill="none" stroke="#63b8ff" d="M677.43,-54.98C666.58,-47 650.12,-34.88 637.12,-25.31"/>
<polygon fill="#63b8ff" stroke="#63b8ff" points="638.91,-22.28 628.78,-19.17 634.76,-27.92 638.91,-22.28"/>
</a>
</g>
</g>
<!-- Node16 -->
<g id="Node000016" class="node">
<title>Node16</title>
<g id="a_Node000016"><a xlink:title=" ">
<polygon fill="#e0e0e0" stroke="#999999" points="732.5,-19 663.5,-19 663.5,0 732.5,0 732.5,-19"/>
<text text-anchor="middle" x="698" y="-7" font-family="Helvetica,sans-Serif" font-size="10.00">type_traits</text>
</a>
</g>
</g>
<!-- Node10&#45;&gt;Node16 -->
<g id="edge19_Node000010_Node000016" class="edge">
<title>Node10&#45;&gt;Node16</title>
<g id="a_edge19_Node000010_Node000016"><a xlink:title=" ">
<path fill="none" stroke="#63b8ff" d="M690.49,-54.75C691.67,-47.8 693.36,-37.85 694.84,-29.13"/>
<polygon fill="#63b8ff" stroke="#63b8ff" points="698.32,-29.53 696.54,-19.09 691.42,-28.36 698.32,-29.53"/>
</a>
</g>
</g>
<!-- Node17&#45;&gt;Node3 -->
<g id="edge24_Node000017_Node000003" class="edge">
<title>Node17&#45;&gt;Node3</title>
<g id="a_edge24_Node000017_Node000003"><a xlink:title=" ">
<path fill="none" stroke="#63b8ff" d="M238.49,-109.98C299.16,-99.54 400.81,-82.05 456.86,-72.41"/>
<polygon fill="#63b8ff" stroke="#63b8ff" points="457.52,-75.85 466.78,-70.7 456.33,-68.95 457.52,-75.85"/>
</a>
</g>
</g>
<!-- Node17&#45;&gt;Node4 -->
<g id="edge27_Node000017_Node000004" class="edge">
<title>Node17&#45;&gt;Node4</title>
<g id="a_edge27_Node000017_Node000004"><a xlink:title=" ">
<path fill="none" stroke="#63b8ff" d="M142.42,-109.94C100.8,-100.31 49.84,-82.34 74,-55 75.36,-53.46 313.24,-24.84 400.98,-14.33"/>
<polygon fill="#63b8ff" stroke="#63b8ff" points="401.4,-17.8 410.91,-13.14 400.57,-10.85 401.4,-17.8"/>
</a>
</g>
</g>
<!-- Node17&#45;&gt;Node6 -->
<g id="edge25_Node000017_Node000006" class="edge">
<title>Node17&#45;&gt;Node6</title>
<g id="a_edge25_Node000017_Node000006"><a xlink:title=" ">
<path fill="none" stroke="#63b8ff" d="M181.9,-109.75C175.83,-102.26 166.91,-91.28 159.49,-82.13"/>
<polygon fill="#63b8ff" stroke="#63b8ff" points="161.99,-79.65 152.97,-74.09 156.55,-84.06 161.99,-79.65"/>
</a>
</g>
</g>
<!-- Node17&#45;&gt;Node7 -->
<g id="edge26_Node000017_Node000007" class="edge">
<title>Node17&#45;&gt;Node7</title>
<g id="a_edge26_Node000017_Node000007"><a xlink:title=" ">
<path fill="none" stroke="#63b8ff" d="M209.89,-109.98C231.08,-101.34 264.13,-87.87 288.3,-78.02"/>
<polygon fill="#63b8ff" stroke="#63b8ff" points="289.79,-81.19 297.73,-74.17 287.15,-74.7 289.79,-81.19"/>
</a>
</g>
</g>
<!-- Node18&#45;&gt;Node3 -->
<g id="edge30_Node000018_Node000003" class="edge">
<title>Node18&#45;&gt;Node3</title>
<g id="a_edge30_Node000018_Node000003"><a xlink:title=" ">
<path fill="none" stroke="#63b8ff" d="M587.65,-109.98C570.43,-101.54 543.8,-88.47 523.85,-78.68"/>
<polygon fill="#63b8ff" stroke="#63b8ff" points="525.19,-75.43 514.67,-74.17 522.1,-81.72 525.19,-75.43"/>
</a>
</g>
</g>
<!-- Node18&#45;&gt;Node4 -->
<g id="edge33_Node000018_Node000004" class="edge">
<title>Node18&#45;&gt;Node4</title>
<g id="a_edge33_Node000018_Node000004"><a xlink:title=" ">
<path fill="none" stroke="#63b8ff" d="M599.9,-109.88C591.51,-96.4 573.56,-70.28 552,-55 537.65,-44.83 495,-30.06 464.88,-20.37"/>
<polygon fill="#63b8ff" stroke="#63b8ff" points="465.79,-16.99 455.2,-17.29 463.67,-23.66 465.79,-16.99"/>
</a>
</g>
</g>
<!-- Node18&#45;&gt;Node6 -->
<g id="edge31_Node000018_Node000006" class="edge">
<title>Node18&#45;&gt;Node6</title>
<g id="a_edge31_Node000018_Node000006"><a xlink:title=" ">
<path fill="none" stroke="#63b8ff" d="M540.43,-111.08C537.24,-110.72 534.08,-110.35 531,-110 394.72,-94.36 358.21,-90.53 218.93,-74.22"/>
<polygon fill="#63b8ff" stroke="#63b8ff" points="219.06,-70.71 208.72,-73.03 218.24,-77.67 219.06,-70.71"/>
</a>
</g>
</g>
<!-- Node18&#45;&gt;Node7 -->
<g id="edge32_Node000018_Node000007" class="edge">
<title>Node18&#45;&gt;Node7</title>
<g id="a_edge32_Node000018_Node000007"><a xlink:title=" ">
<path fill="none" stroke="#63b8ff" d="M559.05,-109.98C509.06,-100.72 429.11,-85.9 375.36,-75.94"/>
<polygon fill="#63b8ff" stroke="#63b8ff" points="375.78,-72.46 365.31,-74.08 374.51,-79.35 375.78,-72.46"/>
</a>
</g>
</g>
<!-- Node18&#45;&gt;Node10 -->
<g id="edge29_Node000018_Node000010" class="edge">
<title>Node18&#45;&gt;Node10</title>
<g id="a_edge29_Node000018_Node000010"><a xlink:title=" ">
<path fill="none" stroke="#63b8ff" d="M618.5,-109.98C631.4,-101.84 651.1,-89.41 666.4,-79.76"/>
<polygon fill="#63b8ff" stroke="#63b8ff" points="668.67,-82.47 675.26,-74.17 664.93,-76.55 668.67,-82.47"/>
</a>
</g>
</g>
<!-- Node19&#45;&gt;Node3 -->
<g id="edge36_Node000019_Node000003" class="edge">
<title>Node19&#45;&gt;Node3</title>
<g id="a_edge36_Node000019_Node000003"><a xlink:title=" ">
<path fill="none" stroke="#63b8ff" d="M347.6,-109.98C377.61,-101.05 424.98,-86.94 458.32,-77.02"/>
<polygon fill="#63b8ff" stroke="#63b8ff" points="459.59,-80.29 468.18,-74.08 457.59,-73.58 459.59,-80.29"/>
</a>
</g>
</g>
<!-- Node19&#45;&gt;Node4 -->
<g id="edge39_Node000019_Node000004" class="edge">
<title>Node19&#45;&gt;Node4</title>
<g id="a_edge39_Node000019_Node000004"><a xlink:title=" ">
<path fill="none" stroke="#63b8ff" d="M359.97,-109.96C380.92,-103.51 405.08,-92.49 420,-74 430.05,-61.55 432.94,-43.34 433.53,-29.61"/>
<polygon fill="#63b8ff" stroke="#63b8ff" points="437.03,-29.37 433.59,-19.35 430.03,-29.33 437.03,-29.37"/>
</a>
</g>
</g>
<!-- Node19&#45;&gt;Node6 -->
<g id="edge37_Node000019_Node000006" class="edge">
<title>Node19&#45;&gt;Node6</title>
<g id="a_edge37_Node000019_Node000006"><a xlink:title=" ">
<path fill="none" stroke="#63b8ff" d="M291.2,-109.98C262.03,-101.05 216,-86.94 183.6,-77.02"/>
<polygon fill="#63b8ff" stroke="#63b8ff" points="184.6,-73.66 174.01,-74.08 182.55,-80.36 184.6,-73.66"/>
</a>
</g>
</g>
<!-- Node19&#45;&gt;Node7 -->
<g id="edge38_Node000019_Node000007" class="edge">
<title>Node19&#45;&gt;Node7</title>
<g id="a_edge38_Node000019_Node000007"><a xlink:title=" ">
<path fill="none" stroke="#63b8ff" d="M319,-109.75C319,-102.8 319,-92.85 319,-84.13"/>
<polygon fill="#63b8ff" stroke="#63b8ff" points="322.5,-84.09 319,-74.09 315.5,-84.09 322.5,-84.09"/>
</a>
</g>
</g>
</g>
</svg>
