<?xml version="1.0" encoding="UTF-8" standalone="no"?>
<!DOCTYPE svg PUBLIC "-//W3C//DTD SVG 1.1//EN"
 "http://www.w3.org/Graphics/SVG/1.1/DTD/svg11.dtd">
<!-- Generated by graphviz version 2.43.0 (0)
 -->
<!-- Title: Databases.hpp Pages: 1 -->
<svg width="778pt" height="137pt"
 viewBox="0.00 0.00 777.50 137.00" xmlns="http://www.w3.org/2000/svg" xmlns:xlink="http://www.w3.org/1999/xlink">
<g id="graph0" class="graph" transform="scale(1 1) rotate(0) translate(4 133)">
<title>Databases.hpp</title>
<!-- Node1 -->
<g id="Node000001" class="node">
<title>Node1</title>
<g id="a_Node000001"><a xlink:title="Provides database management APIs: databases, collections, attributes, documents, and indexes.">
<polygon fill="#999999" stroke="#666666" points="500.5,-129 411.5,-129 411.5,-110 500.5,-110 500.5,-129"/>
<text text-anchor="middle" x="456" y="-117" font-family="Helvetica,sans-Serif" font-size="10.00">Databases.hpp</text>
</a>
</g>
</g>
<!-- Node2 -->
<g id="Node000002" class="node">
<title>Node2</title>
<g id="a_Node000002"><a xlink:href="Utils_8hpp.html" target="_top" xlink:title="Provides utility functions and helpers used across the SDK.">
<polygon fill="white" stroke="#666666" points="626,-74 566,-74 566,-55 626,-55 626,-74"/>
<text text-anchor="middle" x="596" y="-62" font-family="Helvetica,sans-Serif" font-size="10.00">Utils.hpp</text>
</a>
</g>
</g>
<!-- Node1&#45;&gt;Node2 -->
<g id="edge1_Node000001_Node000002" class="edge">
<title>Node1&#45;&gt;Node2</title>
<g id="a_edge1_Node000001_Node000002"><a xlink:title=" ">
<path fill="none" stroke="#63b8ff" d="M478.49,-109.98C501.52,-101.27 537.54,-87.63 563.63,-77.75"/>
<polygon fill="#63b8ff" stroke="#63b8ff" points="564.98,-80.98 573.1,-74.17 562.51,-74.44 564.98,-80.98"/>
</a>
</g>
</g>
<!-- Node3 -->
<g id="Node000003" class="node">
<title>Node3</title>
<g id="a_Node000003"><a xlink:title=" ">
<polygon fill="#e0e0e0" stroke="#999999" points="475,-19 431,-19 431,0 475,0 475,-19"/>
<text text-anchor="middle" x="453" y="-7" font-family="Helvetica,sans-Serif" font-size="10.00">string</text>
</a>
</g>
</g>
<!-- Node1&#45;&gt;Node3 -->
<g id="edge16_Node000001_Node000003" class="edge">
<title>Node1&#45;&gt;Node3</title>
<g id="a_edge16_Node000001_Node000003"><a xlink:title=" ">
<path fill="none" stroke="#63b8ff" d="M411.41,-110.47C390.54,-104.24 367.56,-93.26 355,-74 350.39,-66.93 350.43,-62.1 355,-55 362.64,-43.14 395.35,-29.8 420.9,-20.84"/>
<polygon fill="#63b8ff" stroke="#63b8ff" points="422.29,-24.06 430.62,-17.52 420.03,-17.44 422.29,-24.06"/>
</a>
</g>
</g>
<!-- Node5 -->
<g id="Node000005" class="node">
<title>Node5</title>
<g id="a_Node000005"><a xlink:href="Query_8hpp.html" target="_top" xlink:title="Offers helper methods to construct query parameters for filtering and sorting API responses.">
<polygon fill="white" stroke="#666666" points="300,-74 196,-74 196,-55 300,-55 300,-74"/>
<text text-anchor="middle" x="248" y="-62" font-family="Helvetica,sans-Serif" font-size="10.00">classes/Query.hpp</text>
</a>
</g>
</g>
<!-- Node1&#45;&gt;Node5 -->
<g id="edge4_Node000001_Node000005" class="edge">
<title>Node1&#45;&gt;Node5</title>
<g id="a_edge4_Node000001_Node000005"><a xlink:title=" ">
<path fill="none" stroke="#63b8ff" d="M422.58,-109.98C387.06,-100.93 330.73,-86.58 291.7,-76.64"/>
<polygon fill="#63b8ff" stroke="#63b8ff" points="292.24,-73.16 281.68,-74.08 290.51,-79.94 292.24,-73.16"/>
</a>
</g>
</g>
<!-- Node12 -->
<g id="Node000012" class="node">
<title>Node12</title>
<g id="a_Node000012"><a xlink:href="HttpStatus_8hpp.html" target="_top" xlink:title="Defines HTTP status code enums for consistent error and response handling.">
<polygon fill="white" stroke="#666666" points="769.5,-74 644.5,-74 644.5,-55 769.5,-55 769.5,-74"/>
<text text-anchor="middle" x="707" y="-62" font-family="Helvetica,sans-Serif" font-size="10.00">enums/HttpStatus.hpp</text>
</a>
</g>
</g>
<!-- Node1&#45;&gt;Node12 -->
<g id="edge12_Node000001_Node000012" class="edge">
<title>Node1&#45;&gt;Node12</title>
<g id="a_edge12_Node000001_Node000012"><a xlink:title=" ">
<path fill="none" stroke="#63b8ff" d="M496.33,-109.98C539.84,-100.8 609.2,-86.15 656.35,-76.19"/>
<polygon fill="#63b8ff" stroke="#63b8ff" points="657.3,-79.57 666.36,-74.08 655.85,-72.72 657.3,-79.57"/>
</a>
</g>
</g>
<!-- Node13 -->
<g id="Node000013" class="node">
<title>Node13</title>
<g id="a_Node000013"><a xlink:href="AppwriteException_8hpp.html" target="_top" xlink:title="Declares the base exception class used to represent Appwrite SDK errors.">
<polygon fill="white" stroke="#666666" points="548.5,-74 363.5,-74 363.5,-55 548.5,-55 548.5,-74"/>
<text text-anchor="middle" x="456" y="-62" font-family="Helvetica,sans-Serif" font-size="10.00">exceptions/AppwriteException.hpp</text>
</a>
</g>
</g>
<!-- Node1&#45;&gt;Node13 -->
<g id="edge13_Node000001_Node000013" class="edge">
<title>Node1&#45;&gt;Node13</title>
<g id="a_edge13_Node000001_Node000013"><a xlink:title=" ">
<path fill="none" stroke="#63b8ff" d="M456,-109.75C456,-102.8 456,-92.85 456,-84.13"/>
<polygon fill="#63b8ff" stroke="#63b8ff" points="459.5,-84.09 456,-74.09 452.5,-84.09 459.5,-84.09"/>
</a>
</g>
</g>
<!-- Node2&#45;&gt;Node3 -->
<g id="edge2_Node000002_Node000003" class="edge">
<title>Node2&#45;&gt;Node3</title>
<g id="a_edge2_Node000002_Node000003"><a xlink:title=" ">
<path fill="none" stroke="#63b8ff" d="M573.02,-54.98C549.22,-46.16 511.84,-32.31 485.11,-22.4"/>
<polygon fill="#63b8ff" stroke="#63b8ff" points="486.04,-19.01 475.45,-18.82 483.61,-25.58 486.04,-19.01"/>
</a>
</g>
</g>
<!-- Node4 -->
<g id="Node000004" class="node">
<title>Node4</title>
<g id="a_Node000004"><a xlink:title=" ">
<polygon fill="#e0e0e0" stroke="#999999" points="623.5,-19 576.5,-19 576.5,0 623.5,0 623.5,-19"/>
<text text-anchor="middle" x="600" y="-7" font-family="Helvetica,sans-Serif" font-size="10.00">vector</text>
</a>
</g>
</g>
<!-- Node2&#45;&gt;Node4 -->
<g id="edge3_Node000002_Node000004" class="edge">
<title>Node2&#45;&gt;Node4</title>
<g id="a_edge3_Node000002_Node000004"><a xlink:title=" ">
<path fill="none" stroke="#63b8ff" d="M596.66,-54.75C597.18,-47.8 597.94,-37.85 598.59,-29.13"/>
<polygon fill="#63b8ff" stroke="#63b8ff" points="602.09,-29.32 599.35,-19.09 595.11,-28.8 602.09,-29.32"/>
</a>
</g>
</g>
<!-- Node5&#45;&gt;Node3 -->
<g id="edge10_Node000005_Node000003" class="edge">
<title>Node5&#45;&gt;Node3</title>
<g id="a_edge10_Node000005_Node000003"><a xlink:title=" ">
<path fill="none" stroke="#63b8ff" d="M282.05,-54.98C315.17,-46.64 367.16,-33.46 421.24,-19.17"/>
<polygon fill="#63b8ff" stroke="#63b8ff" points="422.23,-22.53 431,-16.58 420.43,-15.76 422.23,-22.53"/>
</a>
</g>
</g>
<!-- Node6 -->
<g id="Node000006" class="node">
<title>Node6</title>
<g id="a_Node000006"><a xlink:title=" ">
<polygon fill="#e0e0e0" stroke="#999999" points="260.5,-19 211.5,-19 211.5,0 260.5,0 260.5,-19"/>
<text text-anchor="middle" x="236" y="-7" font-family="Helvetica,sans-Serif" font-size="10.00">cctype</text>
</a>
</g>
</g>
<!-- Node5&#45;&gt;Node6 -->
<g id="edge5_Node000005_Node000006" class="edge">
<title>Node5&#45;&gt;Node6</title>
<g id="a_edge5_Node000005_Node000006"><a xlink:title=" ">
<path fill="none" stroke="#63b8ff" d="M246.02,-54.75C244.43,-47.72 242.14,-37.62 240.15,-28.84"/>
<polygon fill="#63b8ff" stroke="#63b8ff" points="243.57,-28.07 237.94,-19.09 236.74,-29.62 243.57,-28.07"/>
</a>
</g>
</g>
<!-- Node7 -->
<g id="Node000007" class="node">
<title>Node7</title>
<g id="a_Node000007"><a xlink:title=" ">
<polygon fill="#e0e0e0" stroke="#999999" points="335,-19 279,-19 279,0 335,0 335,-19"/>
<text text-anchor="middle" x="307" y="-7" font-family="Helvetica,sans-Serif" font-size="10.00">iomanip</text>
</a>
</g>
</g>
<!-- Node5&#45;&gt;Node7 -->
<g id="edge6_Node000005_Node000007" class="edge">
<title>Node5&#45;&gt;Node7</title>
<g id="a_edge6_Node000005_Node000007"><a xlink:title=" ">
<path fill="none" stroke="#63b8ff" d="M257.48,-54.98C266.2,-47.15 279.34,-35.34 289.9,-25.86"/>
<polygon fill="#63b8ff" stroke="#63b8ff" points="292.25,-28.46 297.35,-19.17 287.57,-23.25 292.25,-28.46"/>
</a>
</g>
</g>
<!-- Node8 -->
<g id="Node000008" class="node">
<title>Node8</title>
<g id="a_Node000008"><a xlink:title=" ">
<polygon fill="#e0e0e0" stroke="#999999" points="413,-19 353,-19 353,0 413,0 413,-19"/>
<text text-anchor="middle" x="383" y="-7" font-family="Helvetica,sans-Serif" font-size="10.00">iostream</text>
</a>
</g>
</g>
<!-- Node5&#45;&gt;Node8 -->
<g id="edge7_Node000005_Node000008" class="edge">
<title>Node5&#45;&gt;Node8</title>
<g id="a_edge7_Node000005_Node000008"><a xlink:title=" ">
<path fill="none" stroke="#63b8ff" d="M269.69,-54.98C291.8,-46.3 326.32,-32.75 351.45,-22.88"/>
<polygon fill="#63b8ff" stroke="#63b8ff" points="352.89,-26.08 360.92,-19.17 350.33,-19.57 352.89,-26.08"/>
</a>
</g>
</g>
<!-- Node9 -->
<g id="Node000009" class="node">
<title>Node9</title>
<g id="a_Node000009"><a xlink:title=" ">
<polygon fill="#e0e0e0" stroke="#999999" points="32,-19 0,-19 0,0 32,0 32,-19"/>
<text text-anchor="middle" x="16" y="-7" font-family="Helvetica,sans-Serif" font-size="10.00">list</text>
</a>
</g>
</g>
<!-- Node5&#45;&gt;Node9 -->
<g id="edge8_Node000005_Node000009" class="edge">
<title>Node5&#45;&gt;Node9</title>
<g id="a_edge8_Node000005_Node000009"><a xlink:title=" ">
<path fill="none" stroke="#63b8ff" d="M200.76,-54.96C160.78,-47.38 101.83,-35.34 42.04,-19.03"/>
<polygon fill="#63b8ff" stroke="#63b8ff" points="42.62,-15.56 32.05,-16.26 40.76,-22.3 42.62,-15.56"/>
</a>
</g>
</g>
<!-- Node10 -->
<g id="Node000010" class="node">
<title>Node10</title>
<g id="a_Node000010"><a xlink:title=" ">
<polygon fill="#e0e0e0" stroke="#999999" points="106,-19 50,-19 50,0 106,0 106,-19"/>
<text text-anchor="middle" x="78" y="-7" font-family="Helvetica,sans-Serif" font-size="10.00">sstream</text>
</a>
</g>
</g>
<!-- Node5&#45;&gt;Node10 -->
<g id="edge9_Node000005_Node000010" class="edge">
<title>Node5&#45;&gt;Node10</title>
<g id="a_edge9_Node000005_Node000010"><a xlink:title=" ">
<path fill="none" stroke="#63b8ff" d="M220.69,-54.98C192.15,-46.09 147.17,-32.07 115.36,-22.15"/>
<polygon fill="#63b8ff" stroke="#63b8ff" points="116.12,-18.72 105.53,-19.08 114.03,-25.4 116.12,-18.72"/>
</a>
</g>
</g>
<!-- Node11 -->
<g id="Node000011" class="node">
<title>Node11</title>
<g id="a_Node000011"><a xlink:title=" ">
<polygon fill="#e0e0e0" stroke="#999999" points="193.5,-19 124.5,-19 124.5,0 193.5,0 193.5,-19"/>
<text text-anchor="middle" x="159" y="-7" font-family="Helvetica,sans-Serif" font-size="10.00">type_traits</text>
</a>
</g>
</g>
<!-- Node5&#45;&gt;Node11 -->
<g id="edge11_Node000005_Node000011" class="edge">
<title>Node5&#45;&gt;Node11</title>
<g id="a_edge11_Node000005_Node000011"><a xlink:title=" ">
<path fill="none" stroke="#63b8ff" d="M233.7,-54.98C219.9,-46.77 198.76,-34.18 182.49,-24.49"/>
<polygon fill="#63b8ff" stroke="#63b8ff" points="183.94,-21.28 173.56,-19.17 180.36,-27.29 183.94,-21.28"/>
</a>
</g>
</g>
<!-- Node13&#45;&gt;Node3 -->
<g id="edge15_Node000013_Node000003" class="edge">
<title>Node13&#45;&gt;Node3</title>
<g id="a_edge15_Node000013_Node000003"><a xlink:title=" ">
<path fill="none" stroke="#63b8ff" d="M455.5,-54.75C455.11,-47.8 454.55,-37.85 454.05,-29.13"/>
<polygon fill="#63b8ff" stroke="#63b8ff" points="457.55,-28.88 453.49,-19.09 450.56,-29.27 457.55,-28.88"/>
</a>
</g>
</g>
<!-- Node14 -->
<g id="Node000014" class="node">
<title>Node14</title>
<g id="a_Node000014"><a xlink:title=" ">
<polygon fill="#e0e0e0" stroke="#999999" points="558.5,-19 493.5,-19 493.5,0 558.5,0 558.5,-19"/>
<text text-anchor="middle" x="526" y="-7" font-family="Helvetica,sans-Serif" font-size="10.00">exception</text>
</a>
</g>
</g>
<!-- Node13&#45;&gt;Node14 -->
<g id="edge14_Node000013_Node000014" class="edge">
<title>Node13&#45;&gt;Node14</title>
<g id="a_edge14_Node000013_Node000014"><a xlink:title=" ">
<path fill="none" stroke="#63b8ff" d="M467.25,-54.98C477.8,-47 493.8,-34.88 506.44,-25.31"/>
<polygon fill="#63b8ff" stroke="#63b8ff" points="508.69,-28 514.55,-19.17 504.46,-22.42 508.69,-28"/>
</a>
</g>
</g>
</g>
</svg>
