<?xml version="1.0" encoding="UTF-8" standalone="no"?>
<!DOCTYPE svg PUBLIC "-//W3C//DTD SVG 1.1//EN"
 "http://www.w3.org/Graphics/SVG/1.1/DTD/svg11.dtd">
<!-- Generated by graphviz version 2.43.0 (0)
 -->
<!-- Title: Messaging.hpp Pages: 1 -->
<svg width="838pt" height="137pt"
 viewBox="0.00 0.00 837.50 137.00" xmlns="http://www.w3.org/2000/svg" xmlns:xlink="http://www.w3.org/1999/xlink">
<g id="graph0" class="graph" transform="scale(1 1) rotate(0) translate(4 133)">
<title>Messaging.hpp</title>
<!-- Node1 -->
<g id="Node000001" class="node">
<title>Node1</title>
<g id="a_Node000001"><a xlink:title="Provides messaging&#45;related operations (messages, topics, subscribers)">
<polygon fill="#999999" stroke="#666666" points="498,-129 408,-129 408,-110 498,-110 498,-129"/>
<text text-anchor="middle" x="453" y="-117" font-family="Helvetica,sans-Serif" font-size="10.00">Messaging.hpp</text>
</a>
</g>
</g>
<!-- Node2 -->
<g id="Node000002" class="node">
<title>Node2</title>
<g id="a_Node000002"><a xlink:href="Query_8hpp.html" target="_top" xlink:title="Offers helper methods to construct query parameters for filtering and sorting API responses.">
<polygon fill="white" stroke="#666666" points="304.5,-74 239.5,-74 239.5,-55 304.5,-55 304.5,-74"/>
<text text-anchor="middle" x="272" y="-62" font-family="Helvetica,sans-Serif" font-size="10.00">Query.hpp</text>
</a>
</g>
</g>
<!-- Node1&#45;&gt;Node2 -->
<g id="edge1_Node000001_Node000002" class="edge">
<title>Node1&#45;&gt;Node2</title>
<g id="a_edge1_Node000001_Node000002"><a xlink:title=" ">
<path fill="none" stroke="#63b8ff" d="M423.92,-109.98C393.4,-101.05 345.24,-86.94 311.34,-77.02"/>
<polygon fill="#63b8ff" stroke="#63b8ff" points="311.89,-73.53 301.31,-74.08 309.92,-80.25 311.89,-73.53"/>
</a>
</g>
</g>
<!-- Node8 -->
<g id="Node000008" class="node">
<title>Node8</title>
<g id="a_Node000008"><a xlink:title=" ">
<polygon fill="#e0e0e0" stroke="#999999" points="475,-19 431,-19 431,0 475,0 475,-19"/>
<text text-anchor="middle" x="453" y="-7" font-family="Helvetica,sans-Serif" font-size="10.00">string</text>
</a>
</g>
</g>
<!-- Node1&#45;&gt;Node8 -->
<g id="edge16_Node000001_Node000008" class="edge">
<title>Node1&#45;&gt;Node8</title>
<g id="a_edge16_Node000001_Node000008"><a xlink:title=" ">
<path fill="none" stroke="#63b8ff" d="M441.12,-109.61C426.94,-97.83 406.07,-76.07 414,-55 418.18,-43.89 426.52,-33.75 434.43,-25.96"/>
<polygon fill="#63b8ff" stroke="#63b8ff" points="437.01,-28.35 442.01,-19.01 432.28,-23.19 437.01,-28.35"/>
</a>
</g>
</g>
<!-- Node10 -->
<g id="Node000010" class="node">
<title>Node10</title>
<g id="a_Node000010"><a xlink:href="Utils_8hpp.html" target="_top" xlink:title="Provides utility functions and helpers used across the SDK.">
<polygon fill="white" stroke="#666666" points="483,-74 423,-74 423,-55 483,-55 483,-74"/>
<text text-anchor="middle" x="453" y="-62" font-family="Helvetica,sans-Serif" font-size="10.00">Utils.hpp</text>
</a>
</g>
</g>
<!-- Node1&#45;&gt;Node10 -->
<g id="edge9_Node000001_Node000010" class="edge">
<title>Node1&#45;&gt;Node10</title>
<g id="a_edge9_Node000001_Node000010"><a xlink:title=" ">
<path fill="none" stroke="#63b8ff" d="M453,-109.75C453,-102.8 453,-92.85 453,-84.13"/>
<polygon fill="#63b8ff" stroke="#63b8ff" points="456.5,-84.09 453,-74.09 449.5,-84.09 456.5,-84.09"/>
</a>
</g>
</g>
<!-- Node12 -->
<g id="Node000012" class="node">
<title>Node12</title>
<g id="a_Node000012"><a xlink:href="HttpStatus_8hpp.html" target="_top" xlink:title="Defines HTTP status code enums for consistent error and response handling.">
<polygon fill="white" stroke="#666666" points="829.5,-74 704.5,-74 704.5,-55 829.5,-55 829.5,-74"/>
<text text-anchor="middle" x="767" y="-62" font-family="Helvetica,sans-Serif" font-size="10.00">enums/HttpStatus.hpp</text>
</a>
</g>
</g>
<!-- Node1&#45;&gt;Node12 -->
<g id="edge12_Node000001_Node000012" class="edge">
<title>Node1&#45;&gt;Node12</title>
<g id="a_edge12_Node000001_Node000012"><a xlink:title=" ">
<path fill="none" stroke="#63b8ff" d="M498.32,-110.85C553.07,-101.61 645.38,-86.03 706.25,-75.75"/>
<polygon fill="#63b8ff" stroke="#63b8ff" points="707.21,-79.14 716.49,-74.03 706.05,-72.24 707.21,-79.14"/>
</a>
</g>
</g>
<!-- Node13 -->
<g id="Node000013" class="node">
<title>Node13</title>
<g id="a_Node000013"><a xlink:href="AppwriteException_8hpp.html" target="_top" xlink:title="Declares the base exception class used to represent Appwrite SDK errors.">
<polygon fill="white" stroke="#666666" points="686.5,-74 501.5,-74 501.5,-55 686.5,-55 686.5,-74"/>
<text text-anchor="middle" x="594" y="-62" font-family="Helvetica,sans-Serif" font-size="10.00">exceptions/AppwriteException.hpp</text>
</a>
</g>
</g>
<!-- Node1&#45;&gt;Node13 -->
<g id="edge13_Node000001_Node000013" class="edge">
<title>Node1&#45;&gt;Node13</title>
<g id="a_edge13_Node000001_Node000013"><a xlink:title=" ">
<path fill="none" stroke="#63b8ff" d="M475.65,-109.98C498.85,-101.27 535.12,-87.63 561.4,-77.75"/>
<polygon fill="#63b8ff" stroke="#63b8ff" points="562.8,-80.97 570.93,-74.17 560.34,-74.41 562.8,-80.97"/>
</a>
</g>
</g>
<!-- Node3 -->
<g id="Node000003" class="node">
<title>Node3</title>
<g id="a_Node000003"><a xlink:title=" ">
<polygon fill="#e0e0e0" stroke="#999999" points="260.5,-19 211.5,-19 211.5,0 260.5,0 260.5,-19"/>
<text text-anchor="middle" x="236" y="-7" font-family="Helvetica,sans-Serif" font-size="10.00">cctype</text>
</a>
</g>
</g>
<!-- Node2&#45;&gt;Node3 -->
<g id="edge2_Node000002_Node000003" class="edge">
<title>Node2&#45;&gt;Node3</title>
<g id="a_edge2_Node000002_Node000003"><a xlink:title=" ">
<path fill="none" stroke="#63b8ff" d="M266.06,-54.75C261.02,-47.34 253.66,-36.5 247.49,-27.41"/>
<polygon fill="#63b8ff" stroke="#63b8ff" points="250.35,-25.39 241.83,-19.09 244.56,-29.33 250.35,-25.39"/>
</a>
</g>
</g>
<!-- Node4 -->
<g id="Node000004" class="node">
<title>Node4</title>
<g id="a_Node000004"><a xlink:title=" ">
<polygon fill="#e0e0e0" stroke="#999999" points="335,-19 279,-19 279,0 335,0 335,-19"/>
<text text-anchor="middle" x="307" y="-7" font-family="Helvetica,sans-Serif" font-size="10.00">iomanip</text>
</a>
</g>
</g>
<!-- Node2&#45;&gt;Node4 -->
<g id="edge3_Node000002_Node000004" class="edge">
<title>Node2&#45;&gt;Node4</title>
<g id="a_edge3_Node000002_Node000004"><a xlink:title=" ">
<path fill="none" stroke="#63b8ff" d="M277.78,-54.75C282.62,-47.42 289.68,-36.73 295.64,-27.7"/>
<polygon fill="#63b8ff" stroke="#63b8ff" points="298.74,-29.36 301.33,-19.09 292.9,-25.5 298.74,-29.36"/>
</a>
</g>
</g>
<!-- Node5 -->
<g id="Node000005" class="node">
<title>Node5</title>
<g id="a_Node000005"><a xlink:title=" ">
<polygon fill="#e0e0e0" stroke="#999999" points="413,-19 353,-19 353,0 413,0 413,-19"/>
<text text-anchor="middle" x="383" y="-7" font-family="Helvetica,sans-Serif" font-size="10.00">iostream</text>
</a>
</g>
</g>
<!-- Node2&#45;&gt;Node5 -->
<g id="edge4_Node000002_Node000005" class="edge">
<title>Node2&#45;&gt;Node5</title>
<g id="a_edge4_Node000002_Node000005"><a xlink:title=" ">
<path fill="none" stroke="#63b8ff" d="M289.83,-54.98C307.61,-46.5 335.15,-33.35 355.68,-23.54"/>
<polygon fill="#63b8ff" stroke="#63b8ff" points="357.33,-26.64 364.84,-19.17 354.31,-20.32 357.33,-26.64"/>
</a>
</g>
</g>
<!-- Node6 -->
<g id="Node000006" class="node">
<title>Node6</title>
<g id="a_Node000006"><a xlink:title=" ">
<polygon fill="#e0e0e0" stroke="#999999" points="32,-19 0,-19 0,0 32,0 32,-19"/>
<text text-anchor="middle" x="16" y="-7" font-family="Helvetica,sans-Serif" font-size="10.00">list</text>
</a>
</g>
</g>
<!-- Node2&#45;&gt;Node6 -->
<g id="edge5_Node000002_Node000006" class="edge">
<title>Node2&#45;&gt;Node6</title>
<g id="a_edge5_Node000002_Node000006"><a xlink:title=" ">
<path fill="none" stroke="#63b8ff" d="M239.16,-58.63C195.93,-51.91 117.46,-38.61 41.74,-18.88"/>
<polygon fill="#63b8ff" stroke="#63b8ff" points="42.6,-15.49 32.04,-16.32 40.81,-22.26 42.6,-15.49"/>
</a>
</g>
</g>
<!-- Node7 -->
<g id="Node000007" class="node">
<title>Node7</title>
<g id="a_Node000007"><a xlink:title=" ">
<polygon fill="#e0e0e0" stroke="#999999" points="106,-19 50,-19 50,0 106,0 106,-19"/>
<text text-anchor="middle" x="78" y="-7" font-family="Helvetica,sans-Serif" font-size="10.00">sstream</text>
</a>
</g>
</g>
<!-- Node2&#45;&gt;Node7 -->
<g id="edge6_Node000002_Node000007" class="edge">
<title>Node2&#45;&gt;Node7</title>
<g id="a_edge6_Node000002_Node000007"><a xlink:title=" ">
<path fill="none" stroke="#63b8ff" d="M240.83,-54.98C206.86,-45.7 152.49,-30.85 116.03,-20.89"/>
<polygon fill="#63b8ff" stroke="#63b8ff" points="116.82,-17.48 106.25,-18.22 114.98,-24.23 116.82,-17.48"/>
</a>
</g>
</g>
<!-- Node2&#45;&gt;Node8 -->
<g id="edge7_Node000002_Node000008" class="edge">
<title>Node2&#45;&gt;Node8</title>
<g id="a_edge7_Node000002_Node000008"><a xlink:title=" ">
<path fill="none" stroke="#63b8ff" d="M301.08,-54.98C333.86,-45.39 387.01,-29.82 420.96,-19.88"/>
<polygon fill="#63b8ff" stroke="#63b8ff" points="422.22,-23.16 430.84,-16.99 420.26,-16.44 422.22,-23.16"/>
</a>
</g>
</g>
<!-- Node9 -->
<g id="Node000009" class="node">
<title>Node9</title>
<g id="a_Node000009"><a xlink:title=" ">
<polygon fill="#e0e0e0" stroke="#999999" points="193.5,-19 124.5,-19 124.5,0 193.5,0 193.5,-19"/>
<text text-anchor="middle" x="159" y="-7" font-family="Helvetica,sans-Serif" font-size="10.00">type_traits</text>
</a>
</g>
</g>
<!-- Node2&#45;&gt;Node9 -->
<g id="edge8_Node000002_Node000009" class="edge">
<title>Node2&#45;&gt;Node9</title>
<g id="a_edge8_Node000002_Node000009"><a xlink:title=" ">
<path fill="none" stroke="#63b8ff" d="M253.84,-54.98C235.75,-46.5 207.72,-33.35 186.81,-23.54"/>
<polygon fill="#63b8ff" stroke="#63b8ff" points="188.03,-20.25 177.49,-19.17 185.05,-26.59 188.03,-20.25"/>
</a>
</g>
</g>
<!-- Node10&#45;&gt;Node8 -->
<g id="edge10_Node000010_Node000008" class="edge">
<title>Node10&#45;&gt;Node8</title>
<g id="a_edge10_Node000010_Node000008"><a xlink:title=" ">
<path fill="none" stroke="#63b8ff" d="M453,-54.75C453,-47.8 453,-37.85 453,-29.13"/>
<polygon fill="#63b8ff" stroke="#63b8ff" points="456.5,-29.09 453,-19.09 449.5,-29.09 456.5,-29.09"/>
</a>
</g>
</g>
<!-- Node11 -->
<g id="Node000011" class="node">
<title>Node11</title>
<g id="a_Node000011"><a xlink:title=" ">
<polygon fill="#e0e0e0" stroke="#999999" points="540.5,-19 493.5,-19 493.5,0 540.5,0 540.5,-19"/>
<text text-anchor="middle" x="517" y="-7" font-family="Helvetica,sans-Serif" font-size="10.00">vector</text>
</a>
</g>
</g>
<!-- Node10&#45;&gt;Node11 -->
<g id="edge11_Node000010_Node000011" class="edge">
<title>Node10&#45;&gt;Node11</title>
<g id="a_edge11_Node000010_Node000011"><a xlink:title=" ">
<path fill="none" stroke="#63b8ff" d="M463.28,-54.98C472.84,-47.07 487.28,-35.11 498.78,-25.58"/>
<polygon fill="#63b8ff" stroke="#63b8ff" points="501.06,-28.24 506.53,-19.17 496.6,-22.85 501.06,-28.24"/>
</a>
</g>
</g>
<!-- Node13&#45;&gt;Node8 -->
<g id="edge15_Node000013_Node000008" class="edge">
<title>Node13&#45;&gt;Node8</title>
<g id="a_edge15_Node000013_Node000008"><a xlink:title=" ">
<path fill="none" stroke="#63b8ff" d="M571.35,-54.98C547.88,-46.16 511.01,-32.31 484.67,-22.4"/>
<polygon fill="#63b8ff" stroke="#63b8ff" points="485.73,-19.06 475.13,-18.82 483.26,-25.61 485.73,-19.06"/>
</a>
</g>
</g>
<!-- Node14 -->
<g id="Node000014" class="node">
<title>Node14</title>
<g id="a_Node000014"><a xlink:title=" ">
<polygon fill="#e0e0e0" stroke="#999999" points="626.5,-19 561.5,-19 561.5,0 626.5,0 626.5,-19"/>
<text text-anchor="middle" x="594" y="-7" font-family="Helvetica,sans-Serif" font-size="10.00">exception</text>
</a>
</g>
</g>
<!-- Node13&#45;&gt;Node14 -->
<g id="edge14_Node000013_Node000014" class="edge">
<title>Node13&#45;&gt;Node14</title>
<g id="a_edge14_Node000013_Node000014"><a xlink:title=" ">
<path fill="none" stroke="#63b8ff" d="M594,-54.75C594,-47.8 594,-37.85 594,-29.13"/>
<polygon fill="#63b8ff" stroke="#63b8ff" points="597.5,-29.09 594,-19.09 590.5,-29.09 597.5,-29.09"/>
</a>
</g>
</g>
</g>
</svg>
