<?xml version="1.0" encoding="UTF-8" standalone="no"?>
<!DOCTYPE svg PUBLIC "-//W3C//DTD SVG 1.1//EN"
 "http://www.w3.org/Graphics/SVG/1.1/DTD/svg11.dtd">
<!-- Generated by graphviz version 2.43.0 (0)
 -->
<!-- Title: Query.hpp Pages: 1 -->
<svg width="217pt" height="137pt"
 viewBox="0.00 0.00 216.74 137.00" xmlns="http://www.w3.org/2000/svg" xmlns:xlink="http://www.w3.org/1999/xlink">
<g id="graph0" class="graph" transform="scale(1 1) rotate(0) translate(4 133)">
<title>Query.hpp</title>
<!-- Node1 -->
<g id="Node000001" class="node">
<title>Node1</title>
<g id="a_Node000001"><a xlink:title="Offers helper methods to construct query parameters for filtering and sorting API responses.">
<polygon fill="#999999" stroke="#666666" points="88.24,-129 23.24,-129 23.24,-110 88.24,-110 88.24,-129"/>
<text text-anchor="middle" x="55.74" y="-117" font-family="Helvetica,sans-Serif" font-size="10.00">Query.hpp</text>
</a>
</g>
</g>
<!-- Node2 -->
<g id="Node000002" class="node">
<title>Node2</title>
<g id="a_Node000002"><a xlink:href="Appwrite_8hpp.html" target="_top" xlink:title="Root header to import all core Appwrite SDK modules for easy access.">
<polygon fill="white" stroke="#666666" points="96.24,-19 15.24,-19 15.24,0 96.24,0 96.24,-19"/>
<text text-anchor="middle" x="55.74" y="-7" font-family="Helvetica,sans-Serif" font-size="10.00">Appwrite.hpp</text>
</a>
</g>
</g>
<!-- Node1&#45;&gt;Node2 -->
<g id="edge1_Node000001_Node000002" class="edge">
<title>Node1&#45;&gt;Node2</title>
<g id="a_edge1_Node000001_Node000002"><a xlink:title=" ">
<path fill="none" stroke="#63b8ff" d="M30.85,-104.58C13.05,-92.64 -6.28,-74.35 2.74,-55 10.2,-38.99 26.57,-26.7 39.15,-19.13"/>
<polygon fill="#63b8ff" stroke="#63b8ff" points="29,-107.55 39.33,-109.9 32.72,-101.62 29,-107.55"/>
</a>
</g>
</g>
<!-- Node3 -->
<g id="Node000003" class="node">
<title>Node3</title>
<g id="a_Node000003"><a xlink:href="Databases_8hpp.html" target="_top" xlink:title="Provides database management APIs: databases, collections, attributes, documents, and indexes.">
<polygon fill="white" stroke="#666666" points="100.24,-74 11.24,-74 11.24,-55 100.24,-55 100.24,-74"/>
<text text-anchor="middle" x="55.74" y="-62" font-family="Helvetica,sans-Serif" font-size="10.00">Databases.hpp</text>
</a>
</g>
</g>
<!-- Node1&#45;&gt;Node3 -->
<g id="edge2_Node000001_Node000003" class="edge">
<title>Node1&#45;&gt;Node3</title>
<g id="a_edge2_Node000001_Node000003"><a xlink:title=" ">
<path fill="none" stroke="#63b8ff" d="M55.74,-99.66C55.74,-90.93 55.74,-80.99 55.74,-74.09"/>
<polygon fill="#63b8ff" stroke="#63b8ff" points="52.24,-99.75 55.74,-109.75 59.24,-99.75 52.24,-99.75"/>
</a>
</g>
</g>
<!-- Node4 -->
<g id="Node000004" class="node">
<title>Node4</title>
<g id="a_Node000004"><a xlink:href="Messaging_8hpp.html" target="_top" xlink:title="Provides messaging&#45;related operations (messages, topics, subscribers)">
<polygon fill="white" stroke="#666666" points="208.74,-74 118.74,-74 118.74,-55 208.74,-55 208.74,-74"/>
<text text-anchor="middle" x="163.74" y="-62" font-family="Helvetica,sans-Serif" font-size="10.00">Messaging.hpp</text>
</a>
</g>
</g>
<!-- Node1&#45;&gt;Node4 -->
<g id="edge4_Node000001_Node000004" class="edge">
<title>Node1&#45;&gt;Node4</title>
<g id="a_edge4_Node000001_Node000004"><a xlink:title=" ">
<path fill="none" stroke="#63b8ff" d="M82.23,-105.5C102.09,-95.75 128.74,-82.68 146.07,-74.17"/>
<polygon fill="#63b8ff" stroke="#63b8ff" points="80.53,-102.44 73.09,-109.98 83.61,-108.72 80.53,-102.44"/>
</a>
</g>
</g>
<!-- Node3&#45;&gt;Node2 -->
<g id="edge3_Node000003_Node000002" class="edge">
<title>Node3&#45;&gt;Node2</title>
<g id="a_edge3_Node000003_Node000002"><a xlink:title=" ">
<path fill="none" stroke="#63b8ff" d="M55.74,-44.66C55.74,-35.93 55.74,-25.99 55.74,-19.09"/>
<polygon fill="#63b8ff" stroke="#63b8ff" points="52.24,-44.75 55.74,-54.75 59.24,-44.75 52.24,-44.75"/>
</a>
</g>
</g>
<!-- Node4&#45;&gt;Node2 -->
<g id="edge5_Node000004_Node000002" class="edge">
<title>Node4&#45;&gt;Node2</title>
<g id="a_edge5_Node000004_Node000002"><a xlink:title=" ">
<path fill="none" stroke="#63b8ff" d="M137.25,-50.5C117.38,-40.75 90.74,-27.68 73.41,-19.17"/>
<polygon fill="#63b8ff" stroke="#63b8ff" points="135.87,-53.72 146.39,-54.98 138.95,-47.44 135.87,-53.72"/>
</a>
</g>
</g>
</g>
</svg>
